<?xml version="1.0" encoding="UTF-8" standalone="no"?>
<svg
   xmlns:dc="http://purl.org/dc/elements/1.1/"
   xmlns:cc="http://creativecommons.org/ns#"
   xmlns:rdf="http://www.w3.org/1999/02/22-rdf-syntax-ns#"
   xmlns:svg="http://www.w3.org/2000/svg"
   xmlns="http://www.w3.org/2000/svg"
   xmlns:sodipodi="http://sodipodi.sourceforge.net/DTD/sodipodi-0.dtd"
   xmlns:inkscape="http://www.inkscape.org/namespaces/inkscape"
   width="297mm"
   height="210mm"
   viewBox="0 0 297 210"
   version="1.1"
   id="svg8"
   inkscape:version="1.0.1 (1.0.1+r75)"
   sodipodi:docname="seta.svg"
   inkscape:export-filename="/home/jeyson/Imágenes/Vectors/Seta_Project.png"
   inkscape:export-xdpi="96.300003"
   inkscape:export-ydpi="96.300003">
  <defs
     id="defs2">
    <rect
       x="74.000397"
       y="59.593169"
       width="152.88318"
       height="87.287123"
       id="rect14" />
  </defs>
  <sodipodi:namedview
     id="base"
     pagecolor="#ffffff"
     bordercolor="#666666"
     borderopacity="1.0"
     inkscape:pageopacity="0.0"
     inkscape:pageshadow="2"
     inkscape:zoom="0.49497475"
     inkscape:cx="550.38213"
     inkscape:cy="451.03369"
     inkscape:document-units="mm"
     inkscape:current-layer="layer1"
     inkscape:document-rotation="0"
     showgrid="false"
     inkscape:object-nodes="false"
     inkscape:window-width="1366"
     inkscape:window-height="705"
     inkscape:window-x="0"
     inkscape:window-y="30"
     inkscape:window-maximized="1" />
  <metadata
     id="metadata5">
    <rdf:RDF>
      <cc:Work
         rdf:about="">
        <dc:format>image/svg+xml</dc:format>
        <dc:type
           rdf:resource="http://purl.org/dc/dcmitype/StillImage" />
        <dc:title></dc:title>
      </cc:Work>
    </rdf:RDF>
  </metadata>
  <g
     inkscape:label="Capa 1"
     inkscape:groupmode="layer"
     id="layer1">
    <g
       id="g920">
      <g
         id="g61"
         inkscape:export-xdpi="96.300003"
         inkscape:export-ydpi="96.300003"
         transform="translate(1.2357351e-5)">
        <rect
           style="fill:#b3b3b3;fill-opacity:0.99;stroke:#000000;stroke-width:0;stroke-linecap:round;stroke-linejoin:round;stroke-opacity:0;paint-order:fill markers stroke"
           id="rect10"
           width="210.94652"
           height="134.56351"
           x="44.572063"
           y="37.134888"
           ry="11.151059" />
        <rect
           style="fill:#f2f2f2;fill-opacity:0.99;stroke:#000000;stroke-width:0;stroke-linecap:round;stroke-linejoin:round;stroke-opacity:0;paint-order:fill markers stroke"
           id="rect33"
           width="210.94652"
           height="134.56351"
           x="44.569534"
           y="34.021294"
           ry="11.151059" />
        <g
           aria-label="seta"
           transform="translate(21.702579,11.072147)"
           id="text12"
           style="font-style:normal;font-weight:normal;font-size:10.5833px;line-height:1.25;font-family:sans-serif;white-space:pre;shape-inside:url(#rect14);fill:#ff5555;fill-opacity:1;stroke:none">
          <g
             id="g31">
            <path
               d="m 86.0904,106.4869 q -3.2004,0 -6.096,-0.9652 -2.8956,-0.9652 -4.5212,-2.4384 l 1.1684,-2.032 q 1.6256,1.3716 4.1656,2.286 2.5908,0.9144 5.3848,0.9144 4.0132,0 5.8928,-1.3208 1.9304,-1.3208 1.9304,-3.6576 0,-1.6764 -1.0668,-2.6416 -1.016,-0.9652 -2.54,-1.4224 -1.524,-0.4572 -4.2164,-0.9652 -3.1496,-0.5588 -5.08,-1.2192 -1.9304,-0.6604 -3.302,-2.1336 -1.3716,-1.4732 -1.3716,-4.064 0,-3.1496 2.5908,-5.1816 2.6416,-2.0828 7.4676,-2.0828 2.54,0 5.0292,0.7112 2.4892,0.7112 4.064,1.8796 l -1.1684,2.032 q -1.6256,-1.1684 -3.7084,-1.778 -2.0828,-0.6096 -4.2672,-0.6096 -3.7084,0 -5.588,1.3716 -1.8796,1.3716 -1.8796,3.6068 0,1.778 1.0668,2.794 1.0668,0.9652 2.5908,1.4732 1.5748,0.4572 4.3688,1.016 3.0988,0.5588 4.9784,1.2192 1.9304,0.6096 3.2512,2.032 1.3208,1.4224 1.3208,3.9116 0,3.302 -2.7432,5.2832 -2.7432,1.9812 -7.7216,1.9812 z"
               style="font-style:normal;font-variant:normal;font-weight:normal;font-stretch:normal;font-size:50.8px;font-family:'Montserrat Alternates';-inkscape-font-specification:'Montserrat Alternates, Normal';font-variant-ligatures:normal;font-variant-caps:normal;font-variant-numeric:normal;font-variant-east-asian:normal;fill:#ff5555"
               id="path18" />
            <path
               d="m 114.56459,104.2009 q 2.5908,0 4.7752,-0.9144 2.2352,-0.9652 3.7084,-2.794 l 1.4732,1.6764 q -1.7272,2.1336 -4.318,3.2512 -2.5908,1.0668 -5.6896,1.0668 -3.9624,0 -7.112,-1.7272 -3.0988,-1.7272 -4.8768,-4.7752 -1.7272,-3.048 -1.7272,-6.9596 0,-3.9116 1.6256,-6.9596 1.6764,-3.048 4.6228,-4.7752 2.9464,-1.7272 6.6548,-1.7272 3.4544,0 6.1976,1.6256 2.794,1.5748 4.4196,4.4196 1.6764,2.794 1.8288,6.2992 l -22.4028,4.3688 q 0.9652,3.6576 3.8608,5.7912 2.8956,2.1336 6.9596,2.1336 z m -0.8636,-22.4028 q -2.9972,0 -5.3848,1.4224 -2.3876,1.3716 -3.7084,3.9116 -1.3208,2.4892 -1.3208,5.6896 0,0.5588 0.1016,1.5748 l 20.2184,-3.9624 q -0.3556,-2.3876 -1.6764,-4.3688 -1.3208,-1.9812 -3.4544,-3.0988 -2.1336,-1.1684 -4.7752,-1.1684 z"
               style="font-style:normal;font-variant:normal;font-weight:normal;font-stretch:normal;font-size:50.8px;font-family:'Montserrat Alternates';-inkscape-font-specification:'Montserrat Alternates, Normal';font-variant-ligatures:normal;font-variant-caps:normal;font-variant-numeric:normal;font-variant-east-asian:normal;fill:#ff5555"
               id="path20" />
            <path
               d="m 146.39873,104.6073 q -0.9652,0.9144 -2.4384,1.4224 -1.4224,0.4572 -2.9972,0.4572 -3.4544,0 -5.334,-1.8796 -1.8796,-1.9304 -1.8796,-5.334 V 73.974901 h 2.54 V 79.7661 h 8.4328 v 2.1844 h -8.4328 v 17.0688 q 0,2.5908 1.2192,3.9624 1.27,1.3208 3.7084,1.3208 2.4892,0 4.1148,-1.4732 z"
               style="font-style:normal;font-variant:normal;font-weight:normal;font-stretch:normal;font-size:50.8px;font-family:'Montserrat Alternates';-inkscape-font-specification:'Montserrat Alternates, Normal';font-variant-ligatures:normal;font-variant-caps:normal;font-variant-numeric:normal;font-variant-east-asian:normal;fill:#ff5555"
               id="path22" />
            <path
               d="m 176.08022,79.7661 v 26.5176 h -2.4892 v -6.2484 q -1.5748,3.0988 -4.4196,4.7752 -2.8448,1.6764 -6.4516,1.6764 -3.7084,0 -6.7056,-1.7272 -2.9972,-1.7272 -4.7244,-4.7752 -1.6764,-3.048 -1.6764,-6.9596 0,-3.9116 1.6764,-6.9596 1.7272,-3.0988 4.7244,-4.7752 2.9972,-1.7272 6.7056,-1.7272 3.556,0 6.35,1.6764 2.8448,1.6764 4.4704,4.6736 v -6.1468 z m -13.208,24.4348 q 3.048,0 5.4356,-1.4224 2.4384,-1.4224 3.81,-3.9624 1.4224,-2.54 1.4224,-5.7912 0,-3.2512 -1.4224,-5.7912 -1.3716,-2.54 -3.81,-3.9624 -2.3876,-1.4224 -5.4356,-1.4224 -3.048,0 -5.4864,1.4224 -2.3876,1.4224 -3.81,3.9624 -1.3716,2.54 -1.3716,5.7912 0,3.2512 1.3716,5.7912 1.4224,2.54 3.81,3.9624 2.4384,1.4224 5.4864,1.4224 z"
               style="font-style:normal;font-variant:normal;font-weight:normal;font-stretch:normal;font-size:50.8px;font-family:'Montserrat Alternates';-inkscape-font-specification:'Montserrat Alternates, Normal';font-variant-ligatures:normal;font-variant-caps:normal;font-variant-numeric:normal;font-variant-east-asian:normal;fill:#ff5555"
               id="path24" />
          </g>
        </g>
      </g>
      <circle
         style="fill:#b3b3b3;fill-opacity:0.60638571;stroke:#000000;stroke-width:0;stroke-linecap:round;stroke-linejoin:round;stroke-opacity:0;paint-order:fill markers stroke"
         id="path63"
         cx="55.517303"
         cy="158.52759"
         r="4.0344996" />
      <circle
         style="fill:#b3b3b3;fill-opacity:0.60784316;stroke:#000000;stroke-width:0;stroke-linecap:round;stroke-linejoin:round;stroke-opacity:0;paint-order:fill markers stroke"
         id="path63-5"
         cx="55.517502"
         cy="46.582268"
         r="4.0344996" />
      <circle
         style="fill:#b3b3b3;fill-opacity:0.60784316;stroke:#000000;stroke-width:0;stroke-linecap:round;stroke-linejoin:round;stroke-opacity:0;paint-order:fill markers stroke"
         id="circle80"
         cx="244.92212"
         cy="46.5825"
         r="4.0344996" />
      <circle
         style="fill:#b3b3b3;fill-opacity:0.60784316;stroke:#000000;stroke-width:0;stroke-linecap:round;stroke-linejoin:round;stroke-opacity:0;paint-order:fill markers stroke"
         id="circle82"
         cx="244.9225"
         cy="158.5275"
         r="4.0344996" />
    </g>
  </g>
</svg>
